<svg id="Layer_1" data-name="Layer 1" xmlns="http://www.w3.org/2000/svg" viewBox="0 0 21 22"><defs><style>.cls-1{fill:#81b3d2;}</style></defs><title>calendar_active</title><path class="cls-1" d="M19.25,2H16.41V.65a.66.66,0,1,0-1.31,0V2H11.16V.65a.66.66,0,1,0-1.31,0V2H5.91V.65a.66.66,0,1,0-1.31,0V2H1.75A1.8,1.8,0,0,0,0,3.86v16.3A1.79,1.79,0,0,0,1.75,22h17.5A1.79,1.79,0,0,0,21,20.16V3.86A1.79,1.79,0,0,0,19.25,2Zm.44,18.14a.45.45,0,0,1-.44.46H1.75a.45.45,0,0,1-.44-.46V3.86a.45.45,0,0,1,.44-.46H4.59V4.78a.66.66,0,1,0,1.31,0V3.4H9.85V4.78a.66.66,0,1,0,1.31,0V3.4h3.94V4.78a.66.66,0,1,0,1.31,0V3.4h2.84a.45.45,0,0,1,.44.46v16.3Z"/><path class="cls-1" d="M4.59,8.23H7.22v2.07H4.59Zm0,3.44H7.22v2.07H4.59Zm0,3.44H7.22v2.07H4.59Zm4.59,0h2.63v2.07H9.19Zm0-3.44h2.63v2.07H9.19Zm0-3.44h2.63v2.07H9.19Zm4.59,6.89h2.63v2.07H13.78Zm0-3.44h2.63v2.07H13.78Zm0-3.44h2.63v2.07H13.78Z"/></svg>