<?xml version="1.0" encoding="utf-8"?>
<!-- Generator: Adobe Illustrator 21.1.0, SVG Export Plug-In . SVG Version: 6.00 Build 0)  -->
<svg version="1.1" id="Layer_2" xmlns="http://www.w3.org/2000/svg" xmlns:xlink="http://www.w3.org/1999/xlink" x="0px" y="0px"
	 viewBox="0 0 74 70" style="enable-background:new 0 0 74 70;" xml:space="preserve">
<style type="text/css">
	.st0{fill:#81B3D2;}
</style>
<g>
	<path class="st0" d="M69.9,46.7H59.3H14.6H4.1c-2.3,0-4.1,1.9-4.1,4.3v3.5c0,2.4,1.9,4.3,4.1,4.3H5v1.1C5,65.4,9.3,70,14.6,70h44.6
		c5.3,0,9.6-4.5,9.6-10.1v-1.1h0.9c2.3,0,4.1-1.9,4.1-4.3V51C74,48.7,72.1,46.7,69.9,46.7z M66,59.9c0,3.9-3,7-6.7,7H14.6
		c-3.7,0-6.7-3.2-6.7-7v-1.1H66L66,59.9L66,59.9z M71.1,54.5c0,0.7-0.6,1.3-1.2,1.3h-1h-2.9H8H5h-1c-0.7,0-1.2-0.6-1.2-1.3V51
		c0-0.7,0.6-1.3,1.2-1.3h3.7h6.9h44.6h6.9h3.7c0.7,0,1.2,0.6,1.2,1.3C71.1,51,71.1,54.5,71.1,54.5z"/>
	<polygon class="st0" points="15.6,38.4 21,42.5 26.3,38.4 31.6,42.5 36.9,38.4 42.3,42.5 47.6,38.4 52.9,42.5 58.3,38.4 63.6,42.5 
		69.8,37.8 68.1,35.3 63.6,38.7 58.3,34.6 52.9,38.7 47.6,34.6 42.3,38.7 36.9,34.6 31.6,38.7 26.3,34.6 21,38.7 15.6,34.6 
		10.3,38.7 5.8,35.3 4.1,37.8 10.3,42.5 	"/>
	<path class="st0" d="M8,31.5h57.9h2.9c0-0.6,0.1-1.2,0.1-1.9c0-0.4,0-0.8,0-1.2C68.2,12.7,54.2,0,37,0C19.7,0,5.7,12.7,5,28.5
		c0,0.4,0,0.8,0,1.2c0,0.6,0,1.3,0.1,1.9H8z M37,3c15.6,0,28.4,11.3,29,25.5h-58C8.6,14.4,21.4,3,37,3z"/>
	<ellipse class="st0" cx="37" cy="15.3" rx="1.9" ry="2"/>
	<ellipse class="st0" cx="29.2" cy="10.2" rx="1.9" ry="2"/>
	<ellipse class="st0" cx="44.7" cy="10.2" rx="1.9" ry="2"/>
</g>
</svg>
