<svg id="Layer_1" data-name="Layer 1" xmlns="http://www.w3.org/2000/svg" viewBox="0 0 64 76"><defs><style>.cls-1{fill:#81b3d2;}</style></defs><title>gifts</title><path class="cls-1" d="M61.1,22.5H36.31C50.13,15.6,51.23,11.25,50.72,8.82c-1.16-4-5.69-7-10-5.41C35.15,5.5,33.58,13.8,32.07,19.8,30.15,13.73,28.29,6,23.94,2.06a7.31,7.31,0,0,0-5.76-2c-4,.36-9.8,5.38-7.46,11C13,16.39,20.4,19.79,25.29,22.5H2.88A2.88,2.88,0,0,0,0,25.37V36.69a2.88,2.88,0,0,0,2.88,2.87h.27V76H61V39.56h.1A2.88,2.88,0,0,0,64,36.69V25.37A2.88,2.88,0,0,0,61.1,22.5ZM42.41,5.94c2.1-.31,5,1.3,5.26,3.21.39,2.76-3.4,5.26-5.09,6.42-2.52,1.74-4.93,2.64-7.29,4.06C36.18,15.94,37.84,6.62,42.41,5.94Zm-22.88,10c-2.23-1.48-6.54-4.43-6.44-7.77.11-3.6,5.74-6.57,8.81-3.89,3.86,3.37,5.71,11.1,7.12,16.56A69.55,69.55,0,0,1,19.53,15.91ZM25.5,73H6.14V39.56H25.5V73Zm0-36.5H3v-11H25.5Zm10.16,0V73H28.49V25.54h7.17ZM58,73H38.64V39.56H58Zm2.92-36.5H38.64v-11H60.93Z"/></svg>