<svg id="Layer_1" data-name="Layer 1" xmlns="http://www.w3.org/2000/svg" viewBox="0 0 75 72"><defs><style>.cls-1{fill:#81b3d2;}</style></defs><title>house</title><path class="cls-1" d="M29.66,65h16V41.21h-16Zm2.94-20.9H42.72v18H32.59Z"/><path class="cls-1" d="M72.77,39.25l2.08-2.07-9.91-9.86V0H51.13V13.57L37.5,0,.15,37.19l2.08,2.07,7.83-7.8V69.08H6.12V72H70V69.08H64.94V31.46ZM62,69.08H13V28.53L37.5,4.15,62,28.53Zm0-44.68-7.94-7.9V2.92H62Z"/><path class="cls-1" d="M29.91,27.08a7.75,7.75,0,1,0,7.75-7.71A7.73,7.73,0,0,0,29.91,27.08Zm7.75-4.94a4.95,4.95,0,1,1-5,4.94A5,5,0,0,1,37.66,22.14Z"/><rect class="cls-1" x="17.06" y="41.21" width="3" height="3.92"/><rect class="cls-1" x="23" y="41.21" width="3" height="3.92"/><rect class="cls-1" x="17.06" y="47.18" width="3" height="3.92"/><rect class="cls-1" x="23" y="47.18" width="3" height="3.92"/><rect class="cls-1" x="49" y="41.21" width="3" height="3.92"/><rect class="cls-1" x="54.94" y="41.21" width="3" height="3.92"/><rect class="cls-1" x="49" y="47.18" width="3" height="3.92"/><rect class="cls-1" x="54.94" y="47.18" width="3" height="3.92"/></svg>