<?xml version="1.0" encoding="utf-8"?>
<!-- Generator: Adobe Illustrator 21.1.0, SVG Export Plug-In . SVG Version: 6.00 Build 0)  -->
<svg version="1.1" id="Layer_1" xmlns="http://www.w3.org/2000/svg" xmlns:xlink="http://www.w3.org/1999/xlink" x="0px" y="0px"
	 viewBox="0 0 1342 76" style="enable-background:new 0 0 1342 76;" xml:space="preserve">
<style type="text/css">
	.st0{fill:#81B3D2;}
</style>
<g>
	<path class="st0" d="M29.7,69h16V45.2h-16C29.7,45.2,29.7,69,29.7,69z M32.6,48.1h10.1v18H32.6C32.6,66.1,32.6,48.1,32.6,48.1z"/>
	<path class="st0" d="M72.8,43.3l2.1-2.1l-9.9-9.9V4H51.1v13.6L37.5,4L0.2,41.2l2.1,2.1l7.8-7.8v37.6H6.1V76H70v-2.9h-5.1V35.5
		L72.8,43.3z M62,73.1H13V32.5L37.5,8.1L62,32.5C62,32.5,62,73.1,62,73.1z M62,28.4l-7.9-7.9V6.9H62C62,6.9,62,28.4,62,28.4z"/>
	<path class="st0" d="M29.9,31.1c0,4.3,3.5,7.7,7.7,7.7c4.3,0,7.8-3.5,7.8-7.7c0-4.3-3.5-7.7-7.8-7.7C33.4,23.4,29.9,26.8,29.9,31.1
		z M37.7,26.1c2.7,0,5,2.2,5,4.9c0,2.7-2.2,4.9-5,4.9c-2.7,0-5-2.2-5-4.9C32.7,28.3,34.9,26.1,37.7,26.1z M17.1,45.2h3v3.9h-3V45.2z
		 M23,45.2h3v3.9h-3V45.2z M17.1,51.2h3v3.9h-3V51.2z M23,51.2h3v3.9h-3V51.2z M49,45.2h3v3.9h-3V45.2z M54.9,45.2h3v3.9h-3V45.2z
		 M49,51.2h3v3.9h-3V51.2z M54.9,51.2h3v3.9h-3V51.2z"/>
</g>
<path class="st0" d="M698.8,22.5H674c13.8-6.9,14.9-11.3,14.4-13.7c-1.2-4-5.7-7-10-5.4c-5.6,2.1-7.1,10.4-8.6,16.4
	c-1.9-6.1-3.8-13.8-8.1-17.7c-1.3-1.1-3.1-2.3-5.8-2c-4,0.4-9.8,5.4-7.5,11c2.3,5.4,9.7,8.8,14.6,11.5h-22.4c-1.6,0-2.9,1.3-2.9,2.9
	v11.3c0,1.6,1.3,2.9,2.9,2.9h0.3V76h57.8V39.6h0.1c1.6,0,2.9-1.3,2.9-2.9V25.4C701.7,23.8,700.4,22.5,698.8,22.5z M680.2,5.9
	c2.1-0.3,5,1.3,5.3,3.2c0.4,2.8-3.4,5.3-5.1,6.4c-2.5,1.7-4.9,2.6-7.3,4.1C673.9,15.9,675.6,6.6,680.2,5.9z M657.3,15.9
	c-2.2-1.5-6.5-4.4-6.4-7.8c0.1-3.6,5.7-6.6,8.8-3.9c3.9,3.4,5.7,11.1,7.1,16.6C663.5,19.3,660.4,18,657.3,15.9z M663.2,73h-19.4
	V39.6h19.4L663.2,73L663.2,73z M663.2,36.5h-22.5v-11h22.5C663.2,25.5,663.2,36.5,663.2,36.5z M673.4,36.5V73h-7.2V25.5h7.2V36.5z
	 M695.7,73h-19.4V39.6h19.4C695.7,39.6,695.7,73,695.7,73z M698.7,36.5h-22.3v-11h22.3C698.7,25.5,698.7,36.5,698.7,36.5z"/>
<g>
	<path class="st0" d="M1334.9,52.7h-65.8c-2.3,0-4.1,1.9-4.1,4.3v3.5c0,2.4,1.9,4.3,4.1,4.3h0.9v1.1c0,5.5,4.3,10.1,9.6,10.1h44.6
		c5.3,0,9.6-4.5,9.6-10.1v-1.1h0.9c2.3,0,4.1-1.9,4.1-4.3V57C1339,54.7,1337.1,52.7,1334.9,52.7z M1331,65.9c0,3.9-3,7-6.7,7h-44.6
		c-3.7,0-6.7-3.2-6.7-7v-1.1h58.1L1331,65.9L1331,65.9z M1336.1,60.5c0,0.7-0.6,1.3-1.2,1.3h-65.8c-0.7,0-1.2-0.6-1.2-1.3V57
		c0-0.7,0.6-1.3,1.2-1.3h65.8c0.7,0,1.2,0.6,1.2,1.3C1336.1,57,1336.1,60.5,1336.1,60.5z M1280.6,44.4l5.3,4.1l5.3-4.1l5.3,4.1
		l5.3-4.1l5.3,4.1l5.3-4.1l5.3,4.1l5.3-4.1l5.3,4.1l6.2-4.7l-1.7-2.5l-4.5,3.4l-5.3-4.1l-5.3,4.1l-5.3-4.1l-5.3,4.1l-5.3-4.1
		l-5.3,4.1l-5.3-4.1l-5.3,4.1l-5.3-4.1l-5.3,4.1l-4.5-3.4l-1.7,2.5l6.2,4.7L1280.6,44.4z M1273,37.5h60.9c0-0.6,0.1-1.2,0.1-1.9
		c0-0.4,0-0.8,0-1.2C1333.2,18.7,1319.2,6,1302,6c-17.2,0-31.3,12.7-31.9,28.5c0,0.4,0,0.8,0,1.2c0,0.6,0,1.3,0.1,1.9H1273z M1302,9
		c15.6,0,28.3,11.3,29,25.5h-58C1273.6,20.4,1286.4,9,1302,9z"/>
	<ellipse class="st0" cx="1302" cy="21.3" rx="1.9" ry="2"/>
	<ellipse class="st0" cx="1294.2" cy="16.2" rx="1.9" ry="2"/>
	<ellipse class="st0" cx="1309.7" cy="16.2" rx="1.9" ry="2"/>
</g>
</svg>
